<?xml version="1.0" encoding="utf-8" standalone="no"?>
<!DOCTYPE svg PUBLIC "-//W3C//DTD SVG 1.1//EN"
  "http://www.w3.org/Graphics/SVG/1.1/DTD/svg11.dtd">
<!-- Created with matplotlib (https://matplotlib.org/) -->
<svg height="180.72pt" version="1.1" viewBox="0 0 530.64 180.72" width="530.64pt" xmlns="http://www.w3.org/2000/svg" xmlns:xlink="http://www.w3.org/1999/xlink">
 <defs>
  <style type="text/css">
*{stroke-linecap:butt;stroke-linejoin:round;white-space:pre;}
  </style>
 </defs>
 <g id="figure_1">
  <g id="patch_1">
   <path d="M 0 180.72 
L 530.64 180.72 
L 530.64 0 
L 0 0 
z
" style="fill:#ffffff;"/>
  </g>
  <g id="axes_1">
   <g id="patch_2">
    <path d="M 52.53336 133.37136 
L 167.610333 133.37136 
L 167.610333 27.65016 
L 52.53336 27.65016 
z
" style="fill:#ffffff;"/>
   </g>
   <g id="matplotlib.axis_1">
    <g id="xtick_1">
     <g id="text_1">
      <!-- 0 -->
      <defs>
       <path d="M 4.15625 35.296875 
Q 4.15625 48 6.765625 55.734375 
Q 9.375 63.484375 14.515625 67.671875 
Q 19.671875 71.875 27.484375 71.875 
Q 33.25 71.875 37.59375 69.546875 
Q 41.9375 67.234375 44.765625 62.859375 
Q 47.609375 58.5 49.21875 52.21875 
Q 50.828125 45.953125 50.828125 35.296875 
Q 50.828125 22.703125 48.234375 14.96875 
Q 45.65625 7.234375 40.5 3 
Q 35.359375 -1.21875 27.484375 -1.21875 
Q 17.140625 -1.21875 11.234375 6.203125 
Q 4.15625 15.140625 4.15625 35.296875 
z
M 13.1875 35.296875 
Q 13.1875 17.671875 17.3125 11.828125 
Q 21.4375 6 27.484375 6 
Q 33.546875 6 37.671875 11.859375 
Q 41.796875 17.71875 41.796875 35.296875 
Q 41.796875 52.984375 37.671875 58.78125 
Q 33.546875 64.59375 27.390625 64.59375 
Q 21.34375 64.59375 17.71875 59.46875 
Q 13.1875 52.9375 13.1875 35.296875 
z
" id="ArialMT-48"/>
      </defs>
      <g style="fill:#262626;" transform="translate(52.208689 150.744954)scale(0.11 -0.11)">
       <use xlink:href="#ArialMT-48"/>
      </g>
     </g>
    </g>
    <g id="xtick_2">
     <g id="text_2">
      <!-- 10 -->
      <defs>
       <path d="M 37.25 0 
L 28.46875 0 
L 28.46875 56 
Q 25.296875 52.984375 20.140625 49.953125 
Q 14.984375 46.921875 10.890625 45.40625 
L 10.890625 53.90625 
Q 18.265625 57.375 23.78125 62.296875 
Q 29.296875 67.234375 31.59375 71.875 
L 37.25 71.875 
z
" id="ArialMT-49"/>
      </defs>
      <g style="fill:#262626;" transform="translate(107.863347 150.744954)scale(0.11 -0.11)">
       <use xlink:href="#ArialMT-49"/>
       <use x="55.615234" xlink:href="#ArialMT-48"/>
      </g>
     </g>
    </g>
    <g id="text_3">
     <!-- Pixel values -->
     <defs>
      <path d="M 7.71875 0 
L 7.71875 71.578125 
L 34.71875 71.578125 
Q 41.84375 71.578125 45.609375 70.90625 
Q 50.875 70.015625 54.4375 67.546875 
Q 58.015625 65.09375 60.1875 60.640625 
Q 62.359375 56.203125 62.359375 50.875 
Q 62.359375 41.75 56.546875 35.421875 
Q 50.734375 29.109375 35.546875 29.109375 
L 17.1875 29.109375 
L 17.1875 0 
z
M 17.1875 37.546875 
L 35.6875 37.546875 
Q 44.875 37.546875 48.734375 40.96875 
Q 52.59375 44.390625 52.59375 50.59375 
Q 52.59375 55.078125 50.3125 58.265625 
Q 48.046875 61.46875 44.34375 62.5 
Q 41.9375 63.140625 35.5 63.140625 
L 17.1875 63.140625 
z
" id="ArialMT-80"/>
      <path d="M 6.640625 61.46875 
L 6.640625 71.578125 
L 15.4375 71.578125 
L 15.4375 61.46875 
z
M 6.640625 0 
L 6.640625 51.859375 
L 15.4375 51.859375 
L 15.4375 0 
z
" id="ArialMT-105"/>
      <path d="M 0.734375 0 
L 19.671875 26.953125 
L 2.15625 51.859375 
L 13.140625 51.859375 
L 21.09375 39.703125 
Q 23.34375 36.234375 24.703125 33.890625 
Q 26.859375 37.109375 28.65625 39.59375 
L 37.40625 51.859375 
L 47.90625 51.859375 
L 29.984375 27.4375 
L 49.265625 0 
L 38.484375 0 
L 27.828125 16.109375 
L 25 20.453125 
L 11.375 0 
z
" id="ArialMT-120"/>
      <path d="M 42.09375 16.703125 
L 51.171875 15.578125 
Q 49.03125 7.625 43.21875 3.21875 
Q 37.40625 -1.171875 28.375 -1.171875 
Q 17 -1.171875 10.328125 5.828125 
Q 3.65625 12.84375 3.65625 25.484375 
Q 3.65625 38.578125 10.390625 45.796875 
Q 17.140625 53.03125 27.875 53.03125 
Q 38.28125 53.03125 44.875 45.953125 
Q 51.46875 38.875 51.46875 26.03125 
Q 51.46875 25.25 51.421875 23.6875 
L 12.75 23.6875 
Q 13.234375 15.140625 17.578125 10.59375 
Q 21.921875 6.0625 28.421875 6.0625 
Q 33.25 6.0625 36.671875 8.59375 
Q 40.09375 11.140625 42.09375 16.703125 
z
M 13.234375 30.90625 
L 42.1875 30.90625 
Q 41.609375 37.453125 38.875 40.71875 
Q 34.671875 45.796875 27.984375 45.796875 
Q 21.921875 45.796875 17.796875 41.75 
Q 13.671875 37.703125 13.234375 30.90625 
z
" id="ArialMT-101"/>
      <path d="M 6.390625 0 
L 6.390625 71.578125 
L 15.1875 71.578125 
L 15.1875 0 
z
" id="ArialMT-108"/>
      <path id="ArialMT-32"/>
      <path d="M 21 0 
L 1.265625 51.859375 
L 10.546875 51.859375 
L 21.6875 20.796875 
Q 23.484375 15.765625 25 10.359375 
Q 26.171875 14.453125 28.265625 20.21875 
L 39.796875 51.859375 
L 48.828125 51.859375 
L 29.203125 0 
z
" id="ArialMT-118"/>
      <path d="M 40.4375 6.390625 
Q 35.546875 2.25 31.03125 0.53125 
Q 26.515625 -1.171875 21.34375 -1.171875 
Q 12.796875 -1.171875 8.203125 3 
Q 3.609375 7.171875 3.609375 13.671875 
Q 3.609375 17.484375 5.34375 20.625 
Q 7.078125 23.78125 9.890625 25.6875 
Q 12.703125 27.59375 16.21875 28.5625 
Q 18.796875 29.25 24.03125 29.890625 
Q 34.671875 31.15625 39.703125 32.90625 
Q 39.75 34.71875 39.75 35.203125 
Q 39.75 40.578125 37.25 42.78125 
Q 33.890625 45.75 27.25 45.75 
Q 21.046875 45.75 18.09375 43.578125 
Q 15.140625 41.40625 13.71875 35.890625 
L 5.125 37.0625 
Q 6.296875 42.578125 8.984375 45.96875 
Q 11.671875 49.359375 16.75 51.1875 
Q 21.828125 53.03125 28.515625 53.03125 
Q 35.15625 53.03125 39.296875 51.46875 
Q 43.453125 49.90625 45.40625 47.53125 
Q 47.359375 45.171875 48.140625 41.546875 
Q 48.578125 39.3125 48.578125 33.453125 
L 48.578125 21.734375 
Q 48.578125 9.46875 49.140625 6.21875 
Q 49.703125 2.984375 51.375 0 
L 42.1875 0 
Q 40.828125 2.734375 40.4375 6.390625 
z
M 39.703125 26.03125 
Q 34.90625 24.078125 25.34375 22.703125 
Q 19.921875 21.921875 17.671875 20.9375 
Q 15.4375 19.96875 14.203125 18.09375 
Q 12.984375 16.21875 12.984375 13.921875 
Q 12.984375 10.40625 15.640625 8.0625 
Q 18.3125 5.71875 23.4375 5.71875 
Q 28.515625 5.71875 32.46875 7.9375 
Q 36.421875 10.15625 38.28125 14.015625 
Q 39.703125 17 39.703125 22.796875 
z
" id="ArialMT-97"/>
      <path d="M 40.578125 0 
L 40.578125 7.625 
Q 34.515625 -1.171875 24.125 -1.171875 
Q 19.53125 -1.171875 15.546875 0.578125 
Q 11.578125 2.34375 9.640625 5 
Q 7.71875 7.671875 6.9375 11.53125 
Q 6.390625 14.109375 6.390625 19.734375 
L 6.390625 51.859375 
L 15.1875 51.859375 
L 15.1875 23.09375 
Q 15.1875 16.21875 15.71875 13.8125 
Q 16.546875 10.359375 19.234375 8.375 
Q 21.921875 6.390625 25.875 6.390625 
Q 29.828125 6.390625 33.296875 8.421875 
Q 36.765625 10.453125 38.203125 13.9375 
Q 39.65625 17.4375 39.65625 24.078125 
L 39.65625 51.859375 
L 48.4375 51.859375 
L 48.4375 0 
z
" id="ArialMT-117"/>
      <path d="M 3.078125 15.484375 
L 11.765625 16.84375 
Q 12.5 11.625 15.84375 8.84375 
Q 19.1875 6.0625 25.203125 6.0625 
Q 31.25 6.0625 34.171875 8.515625 
Q 37.109375 10.984375 37.109375 14.3125 
Q 37.109375 17.28125 34.515625 19 
Q 32.71875 20.171875 25.53125 21.96875 
Q 15.875 24.421875 12.140625 26.203125 
Q 8.40625 27.984375 6.46875 31.125 
Q 4.546875 34.28125 4.546875 38.09375 
Q 4.546875 41.546875 6.125 44.5 
Q 7.71875 47.46875 10.453125 49.421875 
Q 12.5 50.921875 16.03125 51.96875 
Q 19.578125 53.03125 23.640625 53.03125 
Q 29.734375 53.03125 34.34375 51.265625 
Q 38.96875 49.515625 41.15625 46.5 
Q 43.359375 43.5 44.1875 38.484375 
L 35.59375 37.3125 
Q 35.015625 41.3125 32.203125 43.546875 
Q 29.390625 45.796875 24.265625 45.796875 
Q 18.21875 45.796875 15.625 43.796875 
Q 13.03125 41.796875 13.03125 39.109375 
Q 13.03125 37.40625 14.109375 36.03125 
Q 15.1875 34.625 17.484375 33.6875 
Q 18.796875 33.203125 25.25 31.453125 
Q 34.578125 28.953125 38.25 27.359375 
Q 41.9375 25.78125 44.03125 22.75 
Q 46.140625 19.734375 46.140625 15.234375 
Q 46.140625 10.84375 43.578125 6.953125 
Q 41.015625 3.078125 36.171875 0.953125 
Q 31.34375 -1.171875 25.25 -1.171875 
Q 15.140625 -1.171875 9.84375 3.03125 
Q 4.546875 7.234375 3.078125 15.484375 
z
" id="ArialMT-115"/>
     </defs>
     <g style="fill:#262626;" transform="translate(78.057159 165.520579)scale(0.12 -0.12)">
      <use xlink:href="#ArialMT-80"/>
      <use x="66.699219" xlink:href="#ArialMT-105"/>
      <use x="88.916016" xlink:href="#ArialMT-120"/>
      <use x="138.916016" xlink:href="#ArialMT-101"/>
      <use x="194.53125" xlink:href="#ArialMT-108"/>
      <use x="216.748047" xlink:href="#ArialMT-32"/>
      <use x="244.53125" xlink:href="#ArialMT-118"/>
      <use x="294.53125" xlink:href="#ArialMT-97"/>
      <use x="350.146484" xlink:href="#ArialMT-108"/>
      <use x="372.363281" xlink:href="#ArialMT-117"/>
      <use x="427.978516" xlink:href="#ArialMT-101"/>
      <use x="483.59375" xlink:href="#ArialMT-115"/>
     </g>
    </g>
   </g>
   <g id="matplotlib.axis_2">
    <g id="ytick_1">
     <g id="text_4">
      <!-- 0.0 -->
      <defs>
       <path d="M 9.078125 0 
L 9.078125 10.015625 
L 19.09375 10.015625 
L 19.09375 0 
z
" id="ArialMT-46"/>
      </defs>
      <g style="fill:#262626;" transform="translate(27.74336 137.308157)scale(0.11 -0.11)">
       <use xlink:href="#ArialMT-48"/>
       <use x="55.615234" xlink:href="#ArialMT-46"/>
       <use x="83.398438" xlink:href="#ArialMT-48"/>
      </g>
     </g>
    </g>
    <g id="ytick_2">
     <g id="text_5">
      <!-- 0.1 -->
      <g style="fill:#262626;" transform="translate(27.74336 87.542734)scale(0.11 -0.11)">
       <use xlink:href="#ArialMT-48"/>
       <use x="55.615234" xlink:href="#ArialMT-46"/>
       <use x="83.398438" xlink:href="#ArialMT-49"/>
      </g>
     </g>
    </g>
    <g id="ytick_3">
     <g id="text_6">
      <!-- 0.2 -->
      <defs>
       <path d="M 50.34375 8.453125 
L 50.34375 0 
L 3.03125 0 
Q 2.9375 3.171875 4.046875 6.109375 
Q 5.859375 10.9375 9.828125 15.625 
Q 13.8125 20.3125 21.34375 26.46875 
Q 33.015625 36.03125 37.109375 41.625 
Q 41.21875 47.21875 41.21875 52.203125 
Q 41.21875 57.421875 37.46875 61 
Q 33.734375 64.59375 27.734375 64.59375 
Q 21.390625 64.59375 17.578125 60.78125 
Q 13.765625 56.984375 13.71875 50.25 
L 4.6875 51.171875 
Q 5.609375 61.28125 11.65625 66.578125 
Q 17.71875 71.875 27.9375 71.875 
Q 38.234375 71.875 44.234375 66.15625 
Q 50.25 60.453125 50.25 52 
Q 50.25 47.703125 48.484375 43.546875 
Q 46.734375 39.40625 42.65625 34.8125 
Q 38.578125 30.21875 29.109375 22.21875 
Q 21.1875 15.578125 18.9375 13.203125 
Q 16.703125 10.84375 15.234375 8.453125 
z
" id="ArialMT-50"/>
      </defs>
      <g style="fill:#262626;" transform="translate(27.74336 37.777311)scale(0.11 -0.11)">
       <use xlink:href="#ArialMT-48"/>
       <use x="55.615234" xlink:href="#ArialMT-46"/>
       <use x="83.398438" xlink:href="#ArialMT-50"/>
      </g>
     </g>
    </g>
    <g id="text_7">
     <!-- Frequency -->
     <defs>
      <path d="M 8.203125 0 
L 8.203125 71.578125 
L 56.5 71.578125 
L 56.5 63.140625 
L 17.671875 63.140625 
L 17.671875 40.96875 
L 51.265625 40.96875 
L 51.265625 32.515625 
L 17.671875 32.515625 
L 17.671875 0 
z
" id="ArialMT-70"/>
      <path d="M 6.5 0 
L 6.5 51.859375 
L 14.40625 51.859375 
L 14.40625 44 
Q 17.4375 49.515625 20 51.265625 
Q 22.5625 53.03125 25.640625 53.03125 
Q 30.078125 53.03125 34.671875 50.203125 
L 31.640625 42.046875 
Q 28.421875 43.953125 25.203125 43.953125 
Q 22.3125 43.953125 20.015625 42.21875 
Q 17.71875 40.484375 16.75 37.40625 
Q 15.28125 32.71875 15.28125 27.15625 
L 15.28125 0 
z
" id="ArialMT-114"/>
      <path d="M 39.65625 -19.875 
L 39.65625 5.515625 
Q 37.59375 2.640625 33.90625 0.734375 
Q 30.21875 -1.171875 26.078125 -1.171875 
Q 16.84375 -1.171875 10.171875 6.203125 
Q 3.515625 13.578125 3.515625 26.421875 
Q 3.515625 34.234375 6.21875 40.421875 
Q 8.9375 46.625 14.078125 49.828125 
Q 19.234375 53.03125 25.390625 53.03125 
Q 35.015625 53.03125 40.53125 44.921875 
L 40.53125 51.859375 
L 48.4375 51.859375 
L 48.4375 -19.875 
z
M 12.546875 26.078125 
Q 12.546875 16.0625 16.75 11.0625 
Q 20.953125 6.0625 26.8125 6.0625 
Q 32.421875 6.0625 36.46875 10.8125 
Q 40.53125 15.578125 40.53125 25.296875 
Q 40.53125 35.640625 36.25 40.859375 
Q 31.984375 46.09375 26.21875 46.09375 
Q 20.515625 46.09375 16.53125 41.234375 
Q 12.546875 36.375 12.546875 26.078125 
z
" id="ArialMT-113"/>
      <path d="M 6.59375 0 
L 6.59375 51.859375 
L 14.5 51.859375 
L 14.5 44.484375 
Q 20.21875 53.03125 31 53.03125 
Q 35.6875 53.03125 39.625 51.34375 
Q 43.5625 49.65625 45.515625 46.921875 
Q 47.46875 44.1875 48.25 40.4375 
Q 48.734375 37.984375 48.734375 31.890625 
L 48.734375 0 
L 39.9375 0 
L 39.9375 31.546875 
Q 39.9375 36.921875 38.90625 39.578125 
Q 37.890625 42.234375 35.28125 43.8125 
Q 32.671875 45.40625 29.15625 45.40625 
Q 23.53125 45.40625 19.453125 41.84375 
Q 15.375 38.28125 15.375 28.328125 
L 15.375 0 
z
" id="ArialMT-110"/>
      <path d="M 40.4375 19 
L 49.078125 17.875 
Q 47.65625 8.9375 41.8125 3.875 
Q 35.984375 -1.171875 27.484375 -1.171875 
Q 16.84375 -1.171875 10.375 5.78125 
Q 3.90625 12.75 3.90625 25.734375 
Q 3.90625 34.125 6.6875 40.421875 
Q 9.46875 46.734375 15.15625 49.875 
Q 20.84375 53.03125 27.546875 53.03125 
Q 35.984375 53.03125 41.359375 48.75 
Q 46.734375 44.484375 48.25 36.625 
L 39.703125 35.296875 
Q 38.484375 40.53125 35.375 43.15625 
Q 32.28125 45.796875 27.875 45.796875 
Q 21.234375 45.796875 17.078125 41.03125 
Q 12.9375 36.28125 12.9375 25.984375 
Q 12.9375 15.53125 16.9375 10.796875 
Q 20.953125 6.0625 27.390625 6.0625 
Q 32.5625 6.0625 36.03125 9.234375 
Q 39.5 12.40625 40.4375 19 
z
" id="ArialMT-99"/>
      <path d="M 6.203125 -19.96875 
L 5.21875 -11.71875 
Q 8.109375 -12.5 10.25 -12.5 
Q 13.1875 -12.5 14.9375 -11.515625 
Q 16.703125 -10.546875 17.828125 -8.796875 
Q 18.65625 -7.46875 20.515625 -2.25 
Q 20.75 -1.515625 21.296875 -0.09375 
L 1.609375 51.859375 
L 11.078125 51.859375 
L 21.875 21.828125 
Q 23.96875 16.109375 25.640625 9.8125 
Q 27.15625 15.875 29.25 21.625 
L 40.328125 51.859375 
L 49.125 51.859375 
L 29.390625 -0.875 
Q 26.21875 -9.421875 24.46875 -12.640625 
Q 22.125 -17 19.09375 -19.015625 
Q 16.0625 -21.046875 11.859375 -21.046875 
Q 9.328125 -21.046875 6.203125 -19.96875 
z
" id="ArialMT-121"/>
     </defs>
     <g style="fill:#262626;" transform="translate(21.217735 108.856072)rotate(-90)scale(0.12 -0.12)">
      <use xlink:href="#ArialMT-70"/>
      <use x="61.083984" xlink:href="#ArialMT-114"/>
      <use x="94.384766" xlink:href="#ArialMT-101"/>
      <use x="150" xlink:href="#ArialMT-113"/>
      <use x="205.615234" xlink:href="#ArialMT-117"/>
      <use x="261.230469" xlink:href="#ArialMT-101"/>
      <use x="316.845703" xlink:href="#ArialMT-110"/>
      <use x="372.460938" xlink:href="#ArialMT-99"/>
      <use x="422.460938" xlink:href="#ArialMT-121"/>
     </g>
    </g>
   </g>
   <g id="patch_3">
    <path clip-path="url(#pc7c8d28903)" d="M 57.764132 133.37136 
L 59.85644 133.37136 
L 59.85644 131.416275 
L 57.764132 131.416275 
z
" style="fill:#0000ff;opacity:0.4;stroke:#1a1a1a;stroke-linejoin:miter;"/>
   </g>
   <g id="patch_4">
    <path clip-path="url(#pc7c8d28903)" d="M 59.85644 133.37136 
L 61.948749 133.37136 
L 61.948749 126.388915 
L 59.85644 126.388915 
z
" style="fill:#0000ff;opacity:0.4;stroke:#1a1a1a;stroke-linejoin:miter;"/>
   </g>
   <g id="patch_5">
    <path clip-path="url(#pc7c8d28903)" d="M 61.948749 133.37136 
L 64.041057 133.37136 
L 64.041057 115.217003 
L 61.948749 115.217003 
z
" style="fill:#0000ff;opacity:0.4;stroke:#1a1a1a;stroke-linejoin:miter;"/>
   </g>
   <g id="patch_6">
    <path clip-path="url(#pc7c8d28903)" d="M 64.041057 133.37136 
L 66.133366 133.37136 
L 66.133366 105.581229 
L 64.041057 105.581229 
z
" style="fill:#0000ff;opacity:0.4;stroke:#1a1a1a;stroke-linejoin:miter;"/>
   </g>
   <g id="patch_7">
    <path clip-path="url(#pc7c8d28903)" d="M 66.133366 133.37136 
L 68.225675 133.37136 
L 68.225675 86.030383 
L 66.133366 86.030383 
z
" style="fill:#0000ff;opacity:0.4;stroke:#1a1a1a;stroke-linejoin:miter;"/>
   </g>
   <g id="patch_8">
    <path clip-path="url(#pc7c8d28903)" d="M 68.225675 133.37136 
L 70.317983 133.37136 
L 70.317983 74.718822 
L 68.225675 74.718822 
z
" style="fill:#0000ff;opacity:0.4;stroke:#1a1a1a;stroke-linejoin:miter;"/>
   </g>
   <g id="patch_9">
    <path clip-path="url(#pc7c8d28903)" d="M 70.317983 133.37136 
L 72.410292 133.37136 
L 72.410292 58.798847 
L 70.317983 58.798847 
z
" style="fill:#0000ff;opacity:0.4;stroke:#1a1a1a;stroke-linejoin:miter;"/>
   </g>
   <g id="patch_10">
    <path clip-path="url(#pc7c8d28903)" d="M 72.410292 133.37136 
L 74.5026 133.37136 
L 74.5026 47.626935 
L 72.410292 47.626935 
z
" style="fill:#0000ff;opacity:0.4;stroke:#1a1a1a;stroke-linejoin:miter;"/>
   </g>
   <g id="patch_11">
    <path clip-path="url(#pc7c8d28903)" d="M 74.5026 133.37136 
L 76.594909 133.37136 
L 76.594909 47.06834 
L 74.5026 47.06834 
z
" style="fill:#0000ff;opacity:0.4;stroke:#1a1a1a;stroke-linejoin:miter;"/>
   </g>
   <g id="patch_12">
    <path clip-path="url(#pc7c8d28903)" d="M 76.594909 133.37136 
L 78.687218 133.37136 
L 78.687218 32.684503 
L 76.594909 32.684503 
z
" style="fill:#0000ff;opacity:0.4;stroke:#1a1a1a;stroke-linejoin:miter;"/>
   </g>
   <g id="patch_13">
    <path clip-path="url(#pc7c8d28903)" d="M 78.687218 133.37136 
L 80.779526 133.37136 
L 80.779526 34.918885 
L 78.687218 34.918885 
z
" style="fill:#0000ff;opacity:0.4;stroke:#1a1a1a;stroke-linejoin:miter;"/>
   </g>
   <g id="patch_14">
    <path clip-path="url(#pc7c8d28903)" d="M 80.779526 133.37136 
L 82.871835 133.37136 
L 82.871835 41.203086 
L 80.779526 41.203086 
z
" style="fill:#0000ff;opacity:0.4;stroke:#1a1a1a;stroke-linejoin:miter;"/>
   </g>
   <g id="patch_15">
    <path clip-path="url(#pc7c8d28903)" d="M 82.871835 133.37136 
L 84.964143 133.37136 
L 84.964143 39.38765 
L 82.871835 39.38765 
z
" style="fill:#0000ff;opacity:0.4;stroke:#1a1a1a;stroke-linejoin:miter;"/>
   </g>
   <g id="patch_16">
    <path clip-path="url(#pc7c8d28903)" d="M 84.964143 133.37136 
L 87.056452 133.37136 
L 87.056452 51.676753 
L 84.964143 51.676753 
z
" style="fill:#0000ff;opacity:0.4;stroke:#1a1a1a;stroke-linejoin:miter;"/>
   </g>
   <g id="patch_17">
    <path clip-path="url(#pc7c8d28903)" d="M 87.056452 133.37136 
L 89.148761 133.37136 
L 89.148761 61.312527 
L 87.056452 61.312527 
z
" style="fill:#0000ff;opacity:0.4;stroke:#1a1a1a;stroke-linejoin:miter;"/>
   </g>
   <g id="patch_18">
    <path clip-path="url(#pc7c8d28903)" d="M 89.148761 133.37136 
L 91.241069 133.37136 
L 91.241069 68.853568 
L 89.148761 68.853568 
z
" style="fill:#0000ff;opacity:0.4;stroke:#1a1a1a;stroke-linejoin:miter;"/>
   </g>
   <g id="patch_19">
    <path clip-path="url(#pc7c8d28903)" d="M 91.241069 133.37136 
L 93.333378 133.37136 
L 93.333378 75.137769 
L 91.241069 75.137769 
z
" style="fill:#0000ff;opacity:0.4;stroke:#1a1a1a;stroke-linejoin:miter;"/>
   </g>
   <g id="patch_20">
    <path clip-path="url(#pc7c8d28903)" d="M 93.333378 133.37136 
L 95.425686 133.37136 
L 95.425686 77.092853 
L 93.333378 77.092853 
z
" style="fill:#0000ff;opacity:0.4;stroke:#1a1a1a;stroke-linejoin:miter;"/>
   </g>
   <g id="patch_21">
    <path clip-path="url(#pc7c8d28903)" d="M 95.425686 133.37136 
L 97.517995 133.37136 
L 97.517995 90.499148 
L 95.425686 90.499148 
z
" style="fill:#0000ff;opacity:0.4;stroke:#1a1a1a;stroke-linejoin:miter;"/>
   </g>
   <g id="patch_22">
    <path clip-path="url(#pc7c8d28903)" d="M 97.517995 133.37136 
L 99.610304 133.37136 
L 99.610304 96.224753 
L 97.517995 96.224753 
z
" style="fill:#0000ff;opacity:0.4;stroke:#1a1a1a;stroke-linejoin:miter;"/>
   </g>
   <g id="patch_23">
    <path clip-path="url(#pc7c8d28903)" d="M 99.610304 133.37136 
L 101.702612 133.37136 
L 101.702612 99.576326 
L 99.610304 99.576326 
z
" style="fill:#0000ff;opacity:0.4;stroke:#1a1a1a;stroke-linejoin:miter;"/>
   </g>
   <g id="patch_24">
    <path clip-path="url(#pc7c8d28903)" d="M 101.702612 133.37136 
L 103.794921 133.37136 
L 103.794921 105.860527 
L 101.702612 105.860527 
z
" style="fill:#0000ff;opacity:0.4;stroke:#1a1a1a;stroke-linejoin:miter;"/>
   </g>
   <g id="patch_25">
    <path clip-path="url(#pc7c8d28903)" d="M 103.794921 133.37136 
L 105.887229 133.37136 
L 105.887229 108.234558 
L 103.794921 108.234558 
z
" style="fill:#0000ff;opacity:0.4;stroke:#1a1a1a;stroke-linejoin:miter;"/>
   </g>
   <g id="patch_26">
    <path clip-path="url(#pc7c8d28903)" d="M 105.887229 133.37136 
L 107.979538 133.37136 
L 107.979538 111.027536 
L 105.887229 111.027536 
z
" style="fill:#0000ff;opacity:0.4;stroke:#1a1a1a;stroke-linejoin:miter;"/>
   </g>
   <g id="patch_27">
    <path clip-path="url(#pc7c8d28903)" d="M 107.979538 133.37136 
L 110.071847 133.37136 
L 110.071847 116.334194 
L 107.979538 116.334194 
z
" style="fill:#0000ff;opacity:0.4;stroke:#1a1a1a;stroke-linejoin:miter;"/>
   </g>
   <g id="patch_28">
    <path clip-path="url(#pc7c8d28903)" d="M 110.071847 133.37136 
L 112.164155 133.37136 
L 112.164155 119.266821 
L 110.071847 119.266821 
z
" style="fill:#0000ff;opacity:0.4;stroke:#1a1a1a;stroke-linejoin:miter;"/>
   </g>
   <g id="patch_29">
    <path clip-path="url(#pc7c8d28903)" d="M 112.164155 133.37136 
L 114.256464 133.37136 
L 114.256464 122.618395 
L 112.164155 122.618395 
z
" style="fill:#0000ff;opacity:0.4;stroke:#1a1a1a;stroke-linejoin:miter;"/>
   </g>
   <g id="patch_30">
    <path clip-path="url(#pc7c8d28903)" d="M 114.256464 133.37136 
L 116.348772 133.37136 
L 116.348772 125.411373 
L 114.256464 125.411373 
z
" style="fill:#0000ff;opacity:0.4;stroke:#1a1a1a;stroke-linejoin:miter;"/>
   </g>
   <g id="patch_31">
    <path clip-path="url(#pc7c8d28903)" d="M 116.348772 133.37136 
L 118.441081 133.37136 
L 118.441081 126.947511 
L 116.348772 126.947511 
z
" style="fill:#0000ff;opacity:0.4;stroke:#1a1a1a;stroke-linejoin:miter;"/>
   </g>
   <g id="patch_32">
    <path clip-path="url(#pc7c8d28903)" d="M 118.441081 133.37136 
L 120.53339 133.37136 
L 120.53339 127.226808 
L 118.441081 127.226808 
z
" style="fill:#0000ff;opacity:0.4;stroke:#1a1a1a;stroke-linejoin:miter;"/>
   </g>
   <g id="patch_33">
    <path clip-path="url(#pc7c8d28903)" d="M 120.53339 133.37136 
L 122.625698 133.37136 
L 122.625698 129.042244 
L 120.53339 129.042244 
z
" style="fill:#0000ff;opacity:0.4;stroke:#1a1a1a;stroke-linejoin:miter;"/>
   </g>
   <g id="patch_34">
    <path clip-path="url(#pc7c8d28903)" d="M 122.625698 133.37136 
L 124.718007 133.37136 
L 124.718007 130.438733 
L 122.625698 130.438733 
z
" style="fill:#0000ff;opacity:0.4;stroke:#1a1a1a;stroke-linejoin:miter;"/>
   </g>
   <g id="patch_35">
    <path clip-path="url(#pc7c8d28903)" d="M 124.718007 133.37136 
L 126.810315 133.37136 
L 126.810315 130.299084 
L 124.718007 130.299084 
z
" style="fill:#0000ff;opacity:0.4;stroke:#1a1a1a;stroke-linejoin:miter;"/>
   </g>
   <g id="patch_36">
    <path clip-path="url(#pc7c8d28903)" d="M 126.810315 133.37136 
L 128.902624 133.37136 
L 128.902624 131.276626 
L 126.810315 131.276626 
z
" style="fill:#0000ff;opacity:0.4;stroke:#1a1a1a;stroke-linejoin:miter;"/>
   </g>
   <g id="patch_37">
    <path clip-path="url(#pc7c8d28903)" d="M 128.902624 133.37136 
L 130.994933 133.37136 
L 130.994933 132.11452 
L 128.902624 132.11452 
z
" style="fill:#0000ff;opacity:0.4;stroke:#1a1a1a;stroke-linejoin:miter;"/>
   </g>
   <g id="patch_38">
    <path clip-path="url(#pc7c8d28903)" d="M 130.994933 133.37136 
L 133.087241 133.37136 
L 133.087241 131.835222 
L 130.994933 131.835222 
z
" style="fill:#0000ff;opacity:0.4;stroke:#1a1a1a;stroke-linejoin:miter;"/>
   </g>
   <g id="patch_39">
    <path clip-path="url(#pc7c8d28903)" d="M 133.087241 133.37136 
L 135.17955 133.37136 
L 135.17955 132.393818 
L 133.087241 132.393818 
z
" style="fill:#0000ff;opacity:0.4;stroke:#1a1a1a;stroke-linejoin:miter;"/>
   </g>
   <g id="patch_40">
    <path clip-path="url(#pc7c8d28903)" d="M 135.17955 133.37136 
L 137.271859 133.37136 
L 137.271859 132.812764 
L 135.17955 132.812764 
z
" style="fill:#0000ff;opacity:0.4;stroke:#1a1a1a;stroke-linejoin:miter;"/>
   </g>
   <g id="patch_41">
    <path clip-path="url(#pc7c8d28903)" d="M 137.271859 133.37136 
L 139.364167 133.37136 
L 139.364167 132.533467 
L 137.271859 132.533467 
z
" style="fill:#0000ff;opacity:0.4;stroke:#1a1a1a;stroke-linejoin:miter;"/>
   </g>
   <g id="patch_42">
    <path clip-path="url(#pc7c8d28903)" d="M 139.364167 133.37136 
L 141.456476 133.37136 
L 141.456476 132.533467 
L 139.364167 132.533467 
z
" style="fill:#0000ff;opacity:0.4;stroke:#1a1a1a;stroke-linejoin:miter;"/>
   </g>
   <g id="patch_43">
    <path clip-path="url(#pc7c8d28903)" d="M 141.456476 133.37136 
L 143.548784 133.37136 
L 143.548784 132.812764 
L 141.456476 132.812764 
z
" style="fill:#0000ff;opacity:0.4;stroke:#1a1a1a;stroke-linejoin:miter;"/>
   </g>
   <g id="patch_44">
    <path clip-path="url(#pc7c8d28903)" d="M 143.548784 133.37136 
L 145.641093 133.37136 
L 145.641093 133.37136 
L 143.548784 133.37136 
z
" style="fill:#0000ff;opacity:0.4;stroke:#1a1a1a;stroke-linejoin:miter;"/>
   </g>
   <g id="patch_45">
    <path clip-path="url(#pc7c8d28903)" d="M 145.641093 133.37136 
L 147.733402 133.37136 
L 147.733402 133.231711 
L 145.641093 133.231711 
z
" style="fill:#0000ff;opacity:0.4;stroke:#1a1a1a;stroke-linejoin:miter;"/>
   </g>
   <g id="patch_46">
    <path clip-path="url(#pc7c8d28903)" d="M 147.733402 133.37136 
L 149.82571 133.37136 
L 149.82571 133.231711 
L 147.733402 133.231711 
z
" style="fill:#0000ff;opacity:0.4;stroke:#1a1a1a;stroke-linejoin:miter;"/>
   </g>
   <g id="patch_47">
    <path clip-path="url(#pc7c8d28903)" d="M 149.82571 133.37136 
L 151.918019 133.37136 
L 151.918019 133.231711 
L 149.82571 133.231711 
z
" style="fill:#0000ff;opacity:0.4;stroke:#1a1a1a;stroke-linejoin:miter;"/>
   </g>
   <g id="patch_48">
    <path clip-path="url(#pc7c8d28903)" d="M 151.918019 133.37136 
L 154.010327 133.37136 
L 154.010327 133.37136 
L 151.918019 133.37136 
z
" style="fill:#0000ff;opacity:0.4;stroke:#1a1a1a;stroke-linejoin:miter;"/>
   </g>
   <g id="patch_49">
    <path clip-path="url(#pc7c8d28903)" d="M 154.010327 133.37136 
L 156.102636 133.37136 
L 156.102636 133.37136 
L 154.010327 133.37136 
z
" style="fill:#0000ff;opacity:0.4;stroke:#1a1a1a;stroke-linejoin:miter;"/>
   </g>
   <g id="patch_50">
    <path clip-path="url(#pc7c8d28903)" d="M 156.102636 133.37136 
L 158.194945 133.37136 
L 158.194945 133.37136 
L 156.102636 133.37136 
z
" style="fill:#0000ff;opacity:0.4;stroke:#1a1a1a;stroke-linejoin:miter;"/>
   </g>
   <g id="patch_51">
    <path clip-path="url(#pc7c8d28903)" d="M 158.194945 133.37136 
L 160.287253 133.37136 
L 160.287253 133.37136 
L 158.194945 133.37136 
z
" style="fill:#0000ff;opacity:0.4;stroke:#1a1a1a;stroke-linejoin:miter;"/>
   </g>
   <g id="patch_52">
    <path clip-path="url(#pc7c8d28903)" d="M 160.287253 133.37136 
L 162.379562 133.37136 
L 162.379562 133.092062 
L 160.287253 133.092062 
z
" style="fill:#0000ff;opacity:0.4;stroke:#1a1a1a;stroke-linejoin:miter;"/>
   </g>
   <g id="patch_53">
    <path d="M 52.53336 133.37136 
L 52.53336 27.65016 
" style="fill:none;stroke:#262626;stroke-linecap:square;stroke-linejoin:miter;stroke-width:1.25;"/>
   </g>
   <g id="patch_54">
    <path d="M 167.610333 133.37136 
L 167.610333 27.65016 
" style="fill:none;stroke:#262626;stroke-linecap:square;stroke-linejoin:miter;stroke-width:1.25;"/>
   </g>
   <g id="patch_55">
    <path d="M 52.53336 133.37136 
L 167.610333 133.37136 
" style="fill:none;stroke:#262626;stroke-linecap:square;stroke-linejoin:miter;stroke-width:1.25;"/>
   </g>
   <g id="patch_56">
    <path d="M 52.53336 27.65016 
L 167.610333 27.65016 
" style="fill:none;stroke:#262626;stroke-linecap:square;stroke-linejoin:miter;stroke-width:1.25;"/>
   </g>
   <g id="text_8">
    <!-- Image -->
    <defs>
     <path d="M 9.328125 0 
L 9.328125 71.578125 
L 18.796875 71.578125 
L 18.796875 0 
z
" id="ArialMT-73"/>
     <path d="M 6.59375 0 
L 6.59375 51.859375 
L 14.453125 51.859375 
L 14.453125 44.578125 
Q 16.890625 48.390625 20.9375 50.703125 
Q 25 53.03125 30.171875 53.03125 
Q 35.9375 53.03125 39.625 50.640625 
Q 43.3125 48.25 44.828125 43.953125 
Q 50.984375 53.03125 60.84375 53.03125 
Q 68.5625 53.03125 72.703125 48.75 
Q 76.859375 44.484375 76.859375 35.59375 
L 76.859375 0 
L 68.109375 0 
L 68.109375 32.671875 
Q 68.109375 37.9375 67.25 40.25 
Q 66.40625 42.578125 64.15625 43.984375 
Q 61.921875 45.40625 58.890625 45.40625 
Q 53.421875 45.40625 49.796875 41.765625 
Q 46.1875 38.140625 46.1875 30.125 
L 46.1875 0 
L 37.40625 0 
L 37.40625 33.6875 
Q 37.40625 39.546875 35.25 42.46875 
Q 33.109375 45.40625 28.21875 45.40625 
Q 24.515625 45.40625 21.359375 43.453125 
Q 18.21875 41.5 16.796875 37.734375 
Q 15.375 33.984375 15.375 26.90625 
L 15.375 0 
z
" id="ArialMT-109"/>
     <path d="M 4.984375 -4.296875 
L 13.53125 -5.5625 
Q 14.0625 -9.515625 16.5 -11.328125 
Q 19.78125 -13.765625 25.4375 -13.765625 
Q 31.546875 -13.765625 34.859375 -11.328125 
Q 38.1875 -8.890625 39.359375 -4.5 
Q 40.046875 -1.8125 39.984375 6.78125 
Q 34.234375 0 25.640625 0 
Q 14.9375 0 9.078125 7.71875 
Q 3.21875 15.4375 3.21875 26.21875 
Q 3.21875 33.640625 5.90625 39.90625 
Q 8.59375 46.1875 13.6875 49.609375 
Q 18.796875 53.03125 25.6875 53.03125 
Q 34.859375 53.03125 40.828125 45.609375 
L 40.828125 51.859375 
L 48.921875 51.859375 
L 48.921875 7.03125 
Q 48.921875 -5.078125 46.453125 -10.125 
Q 44 -15.1875 38.640625 -18.109375 
Q 33.296875 -21.046875 25.484375 -21.046875 
Q 16.21875 -21.046875 10.5 -16.875 
Q 4.78125 -12.703125 4.984375 -4.296875 
z
M 12.25 26.859375 
Q 12.25 16.65625 16.296875 11.96875 
Q 20.359375 7.28125 26.46875 7.28125 
Q 32.515625 7.28125 36.609375 11.9375 
Q 40.71875 16.609375 40.71875 26.5625 
Q 40.71875 36.078125 36.5 40.90625 
Q 32.28125 45.75 26.3125 45.75 
Q 20.453125 45.75 16.34375 40.984375 
Q 12.25 36.234375 12.25 26.859375 
z
" id="ArialMT-103"/>
    </defs>
    <g style="fill:#262626;" transform="translate(93.397472 21.65016)scale(0.12 -0.12)">
     <use xlink:href="#ArialMT-73"/>
     <use x="27.783203" xlink:href="#ArialMT-109"/>
     <use x="111.083984" xlink:href="#ArialMT-97"/>
     <use x="166.699219" xlink:href="#ArialMT-103"/>
     <use x="222.314453" xlink:href="#ArialMT-101"/>
    </g>
   </g>
  </g>
  <g id="axes_2">
   <g id="patch_57">
    <path d="M 172.67372 133.37136 
L 517.90464 133.37136 
L 517.90464 27.65016 
L 172.67372 27.65016 
z
" style="fill:#ffffff;"/>
   </g>
   <g id="matplotlib.axis_3">
    <g id="xtick_3">
     <g id="text_9">
      <!-- 0 -->
      <g style="fill:#262626;" transform="translate(183.967107 150.744954)scale(0.11 -0.11)">
       <use xlink:href="#ArialMT-48"/>
      </g>
     </g>
    </g>
    <g id="xtick_4">
     <g id="text_10">
      <!-- 20 -->
      <g style="fill:#262626;" transform="translate(243.945932 150.744954)scale(0.11 -0.11)">
       <use xlink:href="#ArialMT-50"/>
       <use x="55.615234" xlink:href="#ArialMT-48"/>
      </g>
     </g>
    </g>
    <g id="xtick_5">
     <g id="text_11">
      <!-- 40 -->
      <defs>
       <path d="M 32.328125 0 
L 32.328125 17.140625 
L 1.265625 17.140625 
L 1.265625 25.203125 
L 33.9375 71.578125 
L 41.109375 71.578125 
L 41.109375 25.203125 
L 50.78125 25.203125 
L 50.78125 17.140625 
L 41.109375 17.140625 
L 41.109375 0 
z
M 32.328125 25.203125 
L 32.328125 57.46875 
L 9.90625 25.203125 
z
" id="ArialMT-52"/>
      </defs>
      <g style="fill:#262626;" transform="translate(306.983273 150.744954)scale(0.11 -0.11)">
       <use xlink:href="#ArialMT-52"/>
       <use x="55.615234" xlink:href="#ArialMT-48"/>
      </g>
     </g>
    </g>
    <g id="xtick_6">
     <g id="text_12">
      <!-- 60 -->
      <defs>
       <path d="M 49.75 54.046875 
L 41.015625 53.375 
Q 39.84375 58.546875 37.703125 60.890625 
Q 34.125 64.65625 28.90625 64.65625 
Q 24.703125 64.65625 21.53125 62.3125 
Q 17.390625 59.28125 14.984375 53.46875 
Q 12.59375 47.65625 12.5 36.921875 
Q 15.671875 41.75 20.265625 44.09375 
Q 24.859375 46.4375 29.890625 46.4375 
Q 38.671875 46.4375 44.84375 39.96875 
Q 51.03125 33.5 51.03125 23.25 
Q 51.03125 16.5 48.125 10.71875 
Q 45.21875 4.9375 40.140625 1.859375 
Q 35.0625 -1.21875 28.609375 -1.21875 
Q 17.625 -1.21875 10.6875 6.859375 
Q 3.765625 14.9375 3.765625 33.5 
Q 3.765625 54.25 11.421875 63.671875 
Q 18.109375 71.875 29.4375 71.875 
Q 37.890625 71.875 43.28125 67.140625 
Q 48.6875 62.40625 49.75 54.046875 
z
M 13.875 23.1875 
Q 13.875 18.65625 15.796875 14.5 
Q 17.71875 10.359375 21.1875 8.171875 
Q 24.65625 6 28.46875 6 
Q 34.03125 6 38.03125 10.484375 
Q 42.046875 14.984375 42.046875 22.703125 
Q 42.046875 30.125 38.078125 34.390625 
Q 34.125 38.671875 28.125 38.671875 
Q 22.171875 38.671875 18.015625 34.390625 
Q 13.875 30.125 13.875 23.1875 
z
" id="ArialMT-54"/>
      </defs>
      <g style="fill:#262626;" transform="translate(370.020613 150.744954)scale(0.11 -0.11)">
       <use xlink:href="#ArialMT-54"/>
       <use x="55.615234" xlink:href="#ArialMT-48"/>
      </g>
     </g>
    </g>
    <g id="xtick_7">
     <g id="text_13">
      <!-- 80 -->
      <defs>
       <path d="M 17.671875 38.8125 
Q 12.203125 40.828125 9.5625 44.53125 
Q 6.9375 48.25 6.9375 53.421875 
Q 6.9375 61.234375 12.546875 66.546875 
Q 18.171875 71.875 27.484375 71.875 
Q 36.859375 71.875 42.578125 66.421875 
Q 48.296875 60.984375 48.296875 53.171875 
Q 48.296875 48.1875 45.671875 44.5 
Q 43.0625 40.828125 37.75 38.8125 
Q 44.34375 36.671875 47.78125 31.875 
Q 51.21875 27.09375 51.21875 20.453125 
Q 51.21875 11.28125 44.71875 5.03125 
Q 38.234375 -1.21875 27.640625 -1.21875 
Q 17.046875 -1.21875 10.546875 5.046875 
Q 4.046875 11.328125 4.046875 20.703125 
Q 4.046875 27.6875 7.59375 32.390625 
Q 11.140625 37.109375 17.671875 38.8125 
z
M 15.921875 53.71875 
Q 15.921875 48.640625 19.1875 45.40625 
Q 22.46875 42.1875 27.6875 42.1875 
Q 32.765625 42.1875 36.015625 45.375 
Q 39.265625 48.578125 39.265625 53.21875 
Q 39.265625 58.0625 35.90625 61.359375 
Q 32.5625 64.65625 27.59375 64.65625 
Q 22.5625 64.65625 19.234375 61.421875 
Q 15.921875 58.203125 15.921875 53.71875 
z
M 13.09375 20.65625 
Q 13.09375 16.890625 14.875 13.375 
Q 16.65625 9.859375 20.171875 7.921875 
Q 23.6875 6 27.734375 6 
Q 34.03125 6 38.125 10.046875 
Q 42.234375 14.109375 42.234375 20.359375 
Q 42.234375 26.703125 38.015625 30.859375 
Q 33.796875 35.015625 27.4375 35.015625 
Q 21.234375 35.015625 17.15625 30.90625 
Q 13.09375 26.8125 13.09375 20.65625 
z
" id="ArialMT-56"/>
      </defs>
      <g style="fill:#262626;" transform="translate(433.057954 150.744954)scale(0.11 -0.11)">
       <use xlink:href="#ArialMT-56"/>
       <use x="55.615234" xlink:href="#ArialMT-48"/>
      </g>
     </g>
    </g>
    <g id="xtick_8">
     <g id="text_14">
      <!-- 100 -->
      <g style="fill:#262626;" transform="translate(493.036779 150.744954)scale(0.11 -0.11)">
       <use xlink:href="#ArialMT-49"/>
       <use x="55.615234" xlink:href="#ArialMT-48"/>
       <use x="111.230469" xlink:href="#ArialMT-48"/>
      </g>
     </g>
    </g>
    <g id="text_15">
     <!-- Pixel values -->
     <g style="fill:#262626;" transform="translate(313.274493 165.520579)scale(0.12 -0.12)">
      <use xlink:href="#ArialMT-80"/>
      <use x="66.699219" xlink:href="#ArialMT-105"/>
      <use x="88.916016" xlink:href="#ArialMT-120"/>
      <use x="138.916016" xlink:href="#ArialMT-101"/>
      <use x="194.53125" xlink:href="#ArialMT-108"/>
      <use x="216.748047" xlink:href="#ArialMT-32"/>
      <use x="244.53125" xlink:href="#ArialMT-118"/>
      <use x="294.53125" xlink:href="#ArialMT-97"/>
      <use x="350.146484" xlink:href="#ArialMT-108"/>
      <use x="372.363281" xlink:href="#ArialMT-117"/>
      <use x="427.978516" xlink:href="#ArialMT-101"/>
      <use x="483.59375" xlink:href="#ArialMT-115"/>
     </g>
    </g>
   </g>
   <g id="matplotlib.axis_4">
    <g id="ytick_4"/>
    <g id="ytick_5"/>
    <g id="ytick_6"/>
    <g id="ytick_7"/>
   </g>
   <g id="patch_58">
    <path clip-path="url(#pea6a536d54)" d="M 188.366035 133.37136 
L 194.64296 133.37136 
L 194.64296 105.00071 
L 188.366035 105.00071 
z
" style="fill:#008000;opacity:0.3;stroke:#1a1a1a;stroke-linejoin:miter;"/>
   </g>
   <g id="patch_59">
    <path clip-path="url(#pea6a536d54)" d="M 194.64296 133.37136 
L 200.919886 133.37136 
L 200.919886 32.684503 
L 194.64296 32.684503 
z
" style="fill:#008000;opacity:0.3;stroke:#1a1a1a;stroke-linejoin:miter;"/>
   </g>
   <g id="patch_60">
    <path clip-path="url(#pea6a536d54)" d="M 200.919886 133.37136 
L 207.196812 133.37136 
L 207.196812 43.627468 
L 200.919886 43.627468 
z
" style="fill:#008000;opacity:0.3;stroke:#1a1a1a;stroke-linejoin:miter;"/>
   </g>
   <g id="patch_61">
    <path clip-path="url(#pea6a536d54)" d="M 207.196812 133.37136 
L 213.473738 133.37136 
L 213.473738 87.312479 
L 207.196812 87.312479 
z
" style="fill:#008000;opacity:0.3;stroke:#1a1a1a;stroke-linejoin:miter;"/>
   </g>
   <g id="patch_62">
    <path clip-path="url(#pea6a536d54)" d="M 213.473738 133.37136 
L 219.750664 133.37136 
L 219.750664 115.451531 
L 213.473738 115.451531 
z
" style="fill:#008000;opacity:0.3;stroke:#1a1a1a;stroke-linejoin:miter;"/>
   </g>
   <g id="patch_63">
    <path clip-path="url(#pea6a536d54)" d="M 219.750664 133.37136 
L 226.02759 133.37136 
L 226.02759 128.334122 
L 219.750664 128.334122 
z
" style="fill:#008000;opacity:0.3;stroke:#1a1a1a;stroke-linejoin:miter;"/>
   </g>
   <g id="patch_64">
    <path clip-path="url(#pea6a536d54)" d="M 226.02759 133.37136 
L 232.304515 133.37136 
L 232.304515 132.097576 
L 226.02759 132.097576 
z
" style="fill:#008000;opacity:0.3;stroke:#1a1a1a;stroke-linejoin:miter;"/>
   </g>
   <g id="patch_65">
    <path clip-path="url(#pea6a536d54)" d="M 232.304515 133.37136 
L 238.581441 133.37136 
L 238.581441 133.023964 
L 232.304515 133.023964 
z
" style="fill:#008000;opacity:0.3;stroke:#1a1a1a;stroke-linejoin:miter;"/>
   </g>
   <g id="patch_66">
    <path clip-path="url(#pea6a536d54)" d="M 238.581441 133.37136 
L 244.858367 133.37136 
L 244.858367 133.313461 
L 238.581441 133.313461 
z
" style="fill:#008000;opacity:0.3;stroke:#1a1a1a;stroke-linejoin:miter;"/>
   </g>
   <g id="patch_67">
    <path clip-path="url(#pea6a536d54)" d="M 244.858367 133.37136 
L 251.135293 133.37136 
L 251.135293 133.37136 
L 244.858367 133.37136 
z
" style="fill:#008000;opacity:0.3;stroke:#1a1a1a;stroke-linejoin:miter;"/>
   </g>
   <g id="patch_68">
    <path clip-path="url(#pea6a536d54)" d="M 251.135293 133.37136 
L 257.412219 133.37136 
L 257.412219 133.37136 
L 251.135293 133.37136 
z
" style="fill:#008000;opacity:0.3;stroke:#1a1a1a;stroke-linejoin:miter;"/>
   </g>
   <g id="patch_69">
    <path clip-path="url(#pea6a536d54)" d="M 257.412219 133.37136 
L 263.689144 133.37136 
L 263.689144 133.37136 
L 257.412219 133.37136 
z
" style="fill:#008000;opacity:0.3;stroke:#1a1a1a;stroke-linejoin:miter;"/>
   </g>
   <g id="patch_70">
    <path clip-path="url(#pea6a536d54)" d="M 263.689144 133.37136 
L 269.96607 133.37136 
L 269.96607 133.37136 
L 263.689144 133.37136 
z
" style="fill:#008000;opacity:0.3;stroke:#1a1a1a;stroke-linejoin:miter;"/>
   </g>
   <g id="patch_71">
    <path clip-path="url(#pea6a536d54)" d="M 269.96607 133.37136 
L 276.242996 133.37136 
L 276.242996 133.37136 
L 269.96607 133.37136 
z
" style="fill:#008000;opacity:0.3;stroke:#1a1a1a;stroke-linejoin:miter;"/>
   </g>
   <g id="patch_72">
    <path clip-path="url(#pea6a536d54)" d="M 276.242996 133.37136 
L 282.519922 133.37136 
L 282.519922 133.37136 
L 276.242996 133.37136 
z
" style="fill:#008000;opacity:0.3;stroke:#1a1a1a;stroke-linejoin:miter;"/>
   </g>
   <g id="patch_73">
    <path clip-path="url(#pea6a536d54)" d="M 282.519922 133.37136 
L 288.796848 133.37136 
L 288.796848 133.37136 
L 282.519922 133.37136 
z
" style="fill:#008000;opacity:0.3;stroke:#1a1a1a;stroke-linejoin:miter;"/>
   </g>
   <g id="patch_74">
    <path clip-path="url(#pea6a536d54)" d="M 288.796848 133.37136 
L 295.073774 133.37136 
L 295.073774 133.37136 
L 288.796848 133.37136 
z
" style="fill:#008000;opacity:0.3;stroke:#1a1a1a;stroke-linejoin:miter;"/>
   </g>
   <g id="patch_75">
    <path clip-path="url(#pea6a536d54)" d="M 295.073774 133.37136 
L 301.350699 133.37136 
L 301.350699 133.37136 
L 295.073774 133.37136 
z
" style="fill:#008000;opacity:0.3;stroke:#1a1a1a;stroke-linejoin:miter;"/>
   </g>
   <g id="patch_76">
    <path clip-path="url(#pea6a536d54)" d="M 301.350699 133.37136 
L 307.627625 133.37136 
L 307.627625 133.37136 
L 301.350699 133.37136 
z
" style="fill:#008000;opacity:0.3;stroke:#1a1a1a;stroke-linejoin:miter;"/>
   </g>
   <g id="patch_77">
    <path clip-path="url(#pea6a536d54)" d="M 307.627625 133.37136 
L 313.904551 133.37136 
L 313.904551 133.37136 
L 307.627625 133.37136 
z
" style="fill:#008000;opacity:0.3;stroke:#1a1a1a;stroke-linejoin:miter;"/>
   </g>
   <g id="patch_78">
    <path clip-path="url(#pea6a536d54)" d="M 313.904551 133.37136 
L 320.181477 133.37136 
L 320.181477 133.37136 
L 313.904551 133.37136 
z
" style="fill:#008000;opacity:0.3;stroke:#1a1a1a;stroke-linejoin:miter;"/>
   </g>
   <g id="patch_79">
    <path clip-path="url(#pea6a536d54)" d="M 320.181477 133.37136 
L 326.458403 133.37136 
L 326.458403 133.37136 
L 320.181477 133.37136 
z
" style="fill:#008000;opacity:0.3;stroke:#1a1a1a;stroke-linejoin:miter;"/>
   </g>
   <g id="patch_80">
    <path clip-path="url(#pea6a536d54)" d="M 326.458403 133.37136 
L 332.735328 133.37136 
L 332.735328 133.37136 
L 326.458403 133.37136 
z
" style="fill:#008000;opacity:0.3;stroke:#1a1a1a;stroke-linejoin:miter;"/>
   </g>
   <g id="patch_81">
    <path clip-path="url(#pea6a536d54)" d="M 332.735328 133.37136 
L 339.012254 133.37136 
L 339.012254 133.37136 
L 332.735328 133.37136 
z
" style="fill:#008000;opacity:0.3;stroke:#1a1a1a;stroke-linejoin:miter;"/>
   </g>
   <g id="patch_82">
    <path clip-path="url(#pea6a536d54)" d="M 339.012254 133.37136 
L 345.28918 133.37136 
L 345.28918 133.37136 
L 339.012254 133.37136 
z
" style="fill:#008000;opacity:0.3;stroke:#1a1a1a;stroke-linejoin:miter;"/>
   </g>
   <g id="patch_83">
    <path clip-path="url(#pea6a536d54)" d="M 345.28918 133.37136 
L 351.566106 133.37136 
L 351.566106 133.37136 
L 345.28918 133.37136 
z
" style="fill:#008000;opacity:0.3;stroke:#1a1a1a;stroke-linejoin:miter;"/>
   </g>
   <g id="patch_84">
    <path clip-path="url(#pea6a536d54)" d="M 351.566106 133.37136 
L 357.843032 133.37136 
L 357.843032 133.37136 
L 351.566106 133.37136 
z
" style="fill:#008000;opacity:0.3;stroke:#1a1a1a;stroke-linejoin:miter;"/>
   </g>
   <g id="patch_85">
    <path clip-path="url(#pea6a536d54)" d="M 357.843032 133.37136 
L 364.119958 133.37136 
L 364.119958 133.37136 
L 357.843032 133.37136 
z
" style="fill:#008000;opacity:0.3;stroke:#1a1a1a;stroke-linejoin:miter;"/>
   </g>
   <g id="patch_86">
    <path clip-path="url(#pea6a536d54)" d="M 364.119958 133.37136 
L 370.396883 133.37136 
L 370.396883 133.37136 
L 364.119958 133.37136 
z
" style="fill:#008000;opacity:0.3;stroke:#1a1a1a;stroke-linejoin:miter;"/>
   </g>
   <g id="patch_87">
    <path clip-path="url(#pea6a536d54)" d="M 370.396883 133.37136 
L 376.673809 133.37136 
L 376.673809 133.37136 
L 370.396883 133.37136 
z
" style="fill:#008000;opacity:0.3;stroke:#1a1a1a;stroke-linejoin:miter;"/>
   </g>
   <g id="patch_88">
    <path clip-path="url(#pea6a536d54)" d="M 376.673809 133.37136 
L 382.950735 133.37136 
L 382.950735 133.37136 
L 376.673809 133.37136 
z
" style="fill:#008000;opacity:0.3;stroke:#1a1a1a;stroke-linejoin:miter;"/>
   </g>
   <g id="patch_89">
    <path clip-path="url(#pea6a536d54)" d="M 382.950735 133.37136 
L 389.227661 133.37136 
L 389.227661 133.37136 
L 382.950735 133.37136 
z
" style="fill:#008000;opacity:0.3;stroke:#1a1a1a;stroke-linejoin:miter;"/>
   </g>
   <g id="patch_90">
    <path clip-path="url(#pea6a536d54)" d="M 389.227661 133.37136 
L 395.504587 133.37136 
L 395.504587 133.37136 
L 389.227661 133.37136 
z
" style="fill:#008000;opacity:0.3;stroke:#1a1a1a;stroke-linejoin:miter;"/>
   </g>
   <g id="patch_91">
    <path clip-path="url(#pea6a536d54)" d="M 395.504587 133.37136 
L 401.781512 133.37136 
L 401.781512 133.37136 
L 395.504587 133.37136 
z
" style="fill:#008000;opacity:0.3;stroke:#1a1a1a;stroke-linejoin:miter;"/>
   </g>
   <g id="patch_92">
    <path clip-path="url(#pea6a536d54)" d="M 401.781512 133.37136 
L 408.058438 133.37136 
L 408.058438 133.37136 
L 401.781512 133.37136 
z
" style="fill:#008000;opacity:0.3;stroke:#1a1a1a;stroke-linejoin:miter;"/>
   </g>
   <g id="patch_93">
    <path clip-path="url(#pea6a536d54)" d="M 408.058438 133.37136 
L 414.335364 133.37136 
L 414.335364 133.37136 
L 408.058438 133.37136 
z
" style="fill:#008000;opacity:0.3;stroke:#1a1a1a;stroke-linejoin:miter;"/>
   </g>
   <g id="patch_94">
    <path clip-path="url(#pea6a536d54)" d="M 414.335364 133.37136 
L 420.61229 133.37136 
L 420.61229 133.37136 
L 414.335364 133.37136 
z
" style="fill:#008000;opacity:0.3;stroke:#1a1a1a;stroke-linejoin:miter;"/>
   </g>
   <g id="patch_95">
    <path clip-path="url(#pea6a536d54)" d="M 420.61229 133.37136 
L 426.889216 133.37136 
L 426.889216 133.37136 
L 420.61229 133.37136 
z
" style="fill:#008000;opacity:0.3;stroke:#1a1a1a;stroke-linejoin:miter;"/>
   </g>
   <g id="patch_96">
    <path clip-path="url(#pea6a536d54)" d="M 426.889216 133.37136 
L 433.166141 133.37136 
L 433.166141 133.37136 
L 426.889216 133.37136 
z
" style="fill:#008000;opacity:0.3;stroke:#1a1a1a;stroke-linejoin:miter;"/>
   </g>
   <g id="patch_97">
    <path clip-path="url(#pea6a536d54)" d="M 433.166141 133.37136 
L 439.443067 133.37136 
L 439.443067 133.37136 
L 433.166141 133.37136 
z
" style="fill:#008000;opacity:0.3;stroke:#1a1a1a;stroke-linejoin:miter;"/>
   </g>
   <g id="patch_98">
    <path clip-path="url(#pea6a536d54)" d="M 439.443067 133.37136 
L 445.719993 133.37136 
L 445.719993 133.37136 
L 439.443067 133.37136 
z
" style="fill:#008000;opacity:0.3;stroke:#1a1a1a;stroke-linejoin:miter;"/>
   </g>
   <g id="patch_99">
    <path clip-path="url(#pea6a536d54)" d="M 445.719993 133.37136 
L 451.996919 133.37136 
L 451.996919 133.37136 
L 445.719993 133.37136 
z
" style="fill:#008000;opacity:0.3;stroke:#1a1a1a;stroke-linejoin:miter;"/>
   </g>
   <g id="patch_100">
    <path clip-path="url(#pea6a536d54)" d="M 451.996919 133.37136 
L 458.273845 133.37136 
L 458.273845 133.37136 
L 451.996919 133.37136 
z
" style="fill:#008000;opacity:0.3;stroke:#1a1a1a;stroke-linejoin:miter;"/>
   </g>
   <g id="patch_101">
    <path clip-path="url(#pea6a536d54)" d="M 458.273845 133.37136 
L 464.550771 133.37136 
L 464.550771 133.37136 
L 458.273845 133.37136 
z
" style="fill:#008000;opacity:0.3;stroke:#1a1a1a;stroke-linejoin:miter;"/>
   </g>
   <g id="patch_102">
    <path clip-path="url(#pea6a536d54)" d="M 464.550771 133.37136 
L 470.827696 133.37136 
L 470.827696 133.37136 
L 464.550771 133.37136 
z
" style="fill:#008000;opacity:0.3;stroke:#1a1a1a;stroke-linejoin:miter;"/>
   </g>
   <g id="patch_103">
    <path clip-path="url(#pea6a536d54)" d="M 470.827696 133.37136 
L 477.104622 133.37136 
L 477.104622 133.37136 
L 470.827696 133.37136 
z
" style="fill:#008000;opacity:0.3;stroke:#1a1a1a;stroke-linejoin:miter;"/>
   </g>
   <g id="patch_104">
    <path clip-path="url(#pea6a536d54)" d="M 477.104622 133.37136 
L 483.381548 133.37136 
L 483.381548 133.37136 
L 477.104622 133.37136 
z
" style="fill:#008000;opacity:0.3;stroke:#1a1a1a;stroke-linejoin:miter;"/>
   </g>
   <g id="patch_105">
    <path clip-path="url(#pea6a536d54)" d="M 483.381548 133.37136 
L 489.658474 133.37136 
L 489.658474 133.37136 
L 483.381548 133.37136 
z
" style="fill:#008000;opacity:0.3;stroke:#1a1a1a;stroke-linejoin:miter;"/>
   </g>
   <g id="patch_106">
    <path clip-path="url(#pea6a536d54)" d="M 489.658474 133.37136 
L 495.9354 133.37136 
L 495.9354 133.37136 
L 489.658474 133.37136 
z
" style="fill:#008000;opacity:0.3;stroke:#1a1a1a;stroke-linejoin:miter;"/>
   </g>
   <g id="patch_107">
    <path clip-path="url(#pea6a536d54)" d="M 495.9354 133.37136 
L 502.212325 133.37136 
L 502.212325 130.476396 
L 495.9354 130.476396 
z
" style="fill:#008000;opacity:0.3;stroke:#1a1a1a;stroke-linejoin:miter;"/>
   </g>
   <g id="patch_108">
    <path d="M 172.67372 133.37136 
L 172.67372 27.65016 
" style="fill:none;stroke:#262626;stroke-linecap:square;stroke-linejoin:miter;stroke-width:1.25;"/>
   </g>
   <g id="patch_109">
    <path d="M 517.90464 133.37136 
L 517.90464 27.65016 
" style="fill:none;stroke:#262626;stroke-linecap:square;stroke-linejoin:miter;stroke-width:1.25;"/>
   </g>
   <g id="patch_110">
    <path d="M 172.67372 133.37136 
L 517.90464 133.37136 
" style="fill:none;stroke:#262626;stroke-linecap:square;stroke-linejoin:miter;stroke-width:1.25;"/>
   </g>
   <g id="patch_111">
    <path d="M 172.67372 27.65016 
L 517.90464 27.65016 
" style="fill:none;stroke:#262626;stroke-linecap:square;stroke-linejoin:miter;stroke-width:1.25;"/>
   </g>
   <g id="text_16">
    <!-- Image w outlier -->
    <defs>
     <path d="M 16.15625 0 
L 0.296875 51.859375 
L 9.375 51.859375 
L 17.625 21.921875 
L 20.703125 10.796875 
Q 20.90625 11.625 23.390625 21.484375 
L 31.640625 51.859375 
L 40.671875 51.859375 
L 48.4375 21.78125 
L 51.03125 11.859375 
L 54 21.875 
L 62.890625 51.859375 
L 71.4375 51.859375 
L 55.21875 0 
L 46.09375 0 
L 37.84375 31.0625 
L 35.84375 39.890625 
L 25.34375 0 
z
" id="ArialMT-119"/>
     <path d="M 3.328125 25.921875 
Q 3.328125 40.328125 11.328125 47.265625 
Q 18.015625 53.03125 27.640625 53.03125 
Q 38.328125 53.03125 45.109375 46.015625 
Q 51.90625 39.015625 51.90625 26.65625 
Q 51.90625 16.65625 48.90625 10.90625 
Q 45.90625 5.171875 40.15625 2 
Q 34.421875 -1.171875 27.640625 -1.171875 
Q 16.75 -1.171875 10.03125 5.8125 
Q 3.328125 12.796875 3.328125 25.921875 
z
M 12.359375 25.921875 
Q 12.359375 15.96875 16.703125 11.015625 
Q 21.046875 6.0625 27.640625 6.0625 
Q 34.1875 6.0625 38.53125 11.03125 
Q 42.875 16.015625 42.875 26.21875 
Q 42.875 35.84375 38.5 40.796875 
Q 34.125 45.75 27.640625 45.75 
Q 21.046875 45.75 16.703125 40.8125 
Q 12.359375 35.890625 12.359375 25.921875 
z
" id="ArialMT-111"/>
     <path d="M 25.78125 7.859375 
L 27.046875 0.09375 
Q 23.34375 -0.6875 20.40625 -0.6875 
Q 15.625 -0.6875 12.984375 0.828125 
Q 10.359375 2.34375 9.28125 4.8125 
Q 8.203125 7.28125 8.203125 15.1875 
L 8.203125 45.015625 
L 1.765625 45.015625 
L 1.765625 51.859375 
L 8.203125 51.859375 
L 8.203125 64.703125 
L 16.9375 69.96875 
L 16.9375 51.859375 
L 25.78125 51.859375 
L 25.78125 45.015625 
L 16.9375 45.015625 
L 16.9375 14.703125 
Q 16.9375 10.9375 17.40625 9.859375 
Q 17.875 8.796875 18.921875 8.15625 
Q 19.96875 7.515625 21.921875 7.515625 
Q 23.390625 7.515625 25.78125 7.859375 
z
" id="ArialMT-116"/>
    </defs>
    <g style="fill:#262626;" transform="translate(304.607305 21.65016)scale(0.12 -0.12)">
     <use xlink:href="#ArialMT-73"/>
     <use x="27.783203" xlink:href="#ArialMT-109"/>
     <use x="111.083984" xlink:href="#ArialMT-97"/>
     <use x="166.699219" xlink:href="#ArialMT-103"/>
     <use x="222.314453" xlink:href="#ArialMT-101"/>
     <use x="277.929688" xlink:href="#ArialMT-32"/>
     <use x="305.712891" xlink:href="#ArialMT-119"/>
     <use x="377.929688" xlink:href="#ArialMT-32"/>
     <use x="405.712891" xlink:href="#ArialMT-111"/>
     <use x="461.328125" xlink:href="#ArialMT-117"/>
     <use x="516.943359" xlink:href="#ArialMT-116"/>
     <use x="544.726562" xlink:href="#ArialMT-108"/>
     <use x="566.943359" xlink:href="#ArialMT-105"/>
     <use x="589.160156" xlink:href="#ArialMT-101"/>
     <use x="644.775391" xlink:href="#ArialMT-114"/>
    </g>
   </g>
  </g>
 </g>
 <defs>
  <clipPath id="pc7c8d28903">
   <rect height="105.7212" width="115.076973" x="52.53336" y="27.65016"/>
  </clipPath>
  <clipPath id="pea6a536d54">
   <rect height="105.7212" width="345.23092" x="172.67372" y="27.65016"/>
  </clipPath>
 </defs>
</svg>
